<?xml version="1.0" encoding="UTF-8" standalone="no"?>
<!-- Created with Inkscape (http://www.inkscape.org/) -->

<svg
   width="24"
   height="24"
   viewBox="0 0 24 24"
   version="1.1"
   id="svg273"
   inkscape:export-filename="/home/notizklotz/Downloads/Rastergrafik.png"
   inkscape:export-xdpi="96"
   inkscape:export-ydpi="96"
   inkscape:version="1.1.1 (3bf5ae0d25, 2021-09-20)"
   sodipodi:docname="bubble_icon.svg"
   xmlns:inkscape="http://www.inkscape.org/namespaces/inkscape"
   xmlns:sodipodi="http://sodipodi.sourceforge.net/DTD/sodipodi-0.dtd"
   xmlns="http://www.w3.org/2000/svg"
   xmlns:svg="http://www.w3.org/2000/svg">
  <sodipodi:namedview
     id="namedview275"
     pagecolor="#ffffff"
     bordercolor="#666666"
     borderopacity="1.0"
     inkscape:pageshadow="2"
     inkscape:pageopacity="0.0"
     inkscape:pagecheckerboard="0"
     inkscape:document-units="px"
     showgrid="false"
     inkscape:zoom="11.887542"
     inkscape:cx="6.9400385"
     inkscape:cy="13.838016"
     inkscape:window-width="1920"
     inkscape:window-height="1011"
     inkscape:window-x="0"
     inkscape:window-y="32"
     inkscape:window-maximized="1"
     inkscape:current-layer="g236"
     units="px"
     width="24px" />
  <defs
     id="defs270" />
  <g
     inkscape:label="Ebene 1"
     inkscape:groupmode="layer"
     id="layer1"
     transform="translate(-7.4149398,-45.080288)">
    <g
       id="g236"
       transform="matrix(2.3365863,0,0,-2.3484046,-69.221835,1556.2361)">
      <path
         d="m 37.603878,635.89849 -1.153406,-1.05296 -0.51219,1.27413 c 0,0 -3.144023,-1.84658 -3.116,-1.78827 0.104015,0.35589 1.904583,3.21533 1.904583,3.21533 l -1.415878,0.54693 1.450314,0.89683 -0.714485,1.48453 1.616225,-0.17917 0.135504,1.5687 1.327644,-0.82269 0.703821,1.37812 0.945572,-1.22491 1.153406,1.05297 0.422049,-1.51677 1.555609,0.47374 -0.428897,-1.59069 1.590749,-0.6144 -1.450332,-0.89688 0.71447,-1.48458 -1.616225,0.17926 -0.13549,-1.5686 -1.327696,0.82261 -0.703774,-1.37809 -0.945573,1.22486"
         style="fill:#000000;fill-opacity:1;fill-rule:nonzero;stroke:none;stroke-width:0.00469151"
         id="path78" />
    </g>
  </g>
</svg>
